<svg xmlns="http://www.w3.org/2000/svg" width="1440" height="580" viewBox="0 0 1440 580" role="img" aria-labelledby="title desc"><title id="title">Autonomous Revenue Core</title><desc id="desc">A website-sales intelligence product-development showcase. Foundation 0.1.0 configured paused; operational platform planned.</desc><defs><linearGradient id="g" x1="0" y1="0" x2="1" y2="1"><stop stop-color="#08bcd0"/><stop offset="1" stop-color="#7756f5"/></linearGradient><marker id="arrow" viewBox="0 0 10 10" refX="9" refY="5" markerWidth="6" markerHeight="6" orient="auto-start-reverse"><path d="M0 0L10 5L0 10" fill="#6d87b7"/></marker></defs><rect width="1440" height="580" rx="28" fill="#0c1735"/><path d="M24 0V580" stroke="#253252" stroke-opacity=".45"/><path d="M72 0V580" stroke="#253252" stroke-opacity=".45"/><path d="M120 0V580" stroke="#253252" stroke-opacity=".45"/><path d="M168 0V580" stroke="#253252" stroke-opacity=".45"/><path d="M216 0V580" stroke="#253252" stroke-opacity=".45"/><path d="M264 0V580" stroke="#253252" stroke-opacity=".45"/><path d="M312 0V580" stroke="#253252" stroke-opacity=".45"/><path d="M360 0V580" stroke="#253252" stroke-opacity=".45"/><path d="M408 0V580" stroke="#253252" stroke-opacity=".45"/><path d="M456 0V580" stroke="#253252" stroke-opacity=".45"/><path d="M504 0V580" stroke="#253252" stroke-opacity=".45"/><path d="M552 0V580" stroke="#253252" stroke-opacity=".45"/><path d="M600 0V580" stroke="#253252" stroke-opacity=".45"/><path d="M648 0V580" stroke="#253252" stroke-opacity=".45"/><path d="M696 0V580" stroke="#253252" stroke-opacity=".45"/><path d="M744 0V580" stroke="#253252" stroke-opacity=".45"/><path d="M792 0V580" stroke="#253252" stroke-opacity=".45"/><path d="M840 0V580" stroke="#253252" stroke-opacity=".45"/><path d="M888 0V580" stroke="#253252" stroke-opacity=".45"/><path d="M936 0V580" stroke="#253252" stroke-opacity=".45"/><path d="M984 0V580" stroke="#253252" stroke-opacity=".45"/><path d="M1032 0V580" stroke="#253252" stroke-opacity=".45"/><path d="M1080 0V580" stroke="#253252" stroke-opacity=".45"/><path d="M1128 0V580" stroke="#253252" stroke-opacity=".45"/><path d="M1176 0V580" stroke="#253252" stroke-opacity=".45"/><path d="M1224 0V580" stroke="#253252" stroke-opacity=".45"/><path d="M1272 0V580" stroke="#253252" stroke-opacity=".45"/><path d="M1320 0V580" stroke="#253252" stroke-opacity=".45"/><path d="M1368 0V580" stroke="#253252" stroke-opacity=".45"/><path d="M1416 0V580" stroke="#253252" stroke-opacity=".45"/><path d="M0 24H1440" stroke="#253252" stroke-opacity=".45"/><path d="M0 72H1440" stroke="#253252" stroke-opacity=".45"/><path d="M0 120H1440" stroke="#253252" stroke-opacity=".45"/><path d="M0 168H1440" stroke="#253252" stroke-opacity=".45"/><path d="M0 216H1440" stroke="#253252" stroke-opacity=".45"/><path d="M0 264H1440" stroke="#253252" stroke-opacity=".45"/><path d="M0 312H1440" stroke="#253252" stroke-opacity=".45"/><path d="M0 360H1440" stroke="#253252" stroke-opacity=".45"/><path d="M0 408H1440" stroke="#253252" stroke-opacity=".45"/><path d="M0 456H1440" stroke="#253252" stroke-opacity=".45"/><path d="M0 504H1440" stroke="#253252" stroke-opacity=".45"/><path d="M0 552H1440" stroke="#253252" stroke-opacity=".45"/><path d="M910 580 Q920 120 1390 70" fill="none" stroke="url(#g)" stroke-width="100" opacity=".14"/><text x="72" y="76" font-family="DejaVu Sans,Arial,sans-serif" font-size="18" font-weight="700" fill="#81e7ef" text-anchor="start">ARC  /  PRODUCT INTELLIGENCE</text><text x="68" y="225" font-family="DejaVu Sans,Arial,sans-serif" font-size="78" font-weight="700" fill="#ffffff" text-anchor="start">Autonomous</text><text x="68" y="319" font-family="DejaVu Sans,Arial,sans-serif" font-size="78" font-weight="700" fill="#ffffff" text-anchor="start">Revenue Core</text><text x="72" y="385" font-family="DejaVu Sans,Arial,sans-serif" font-size="25" font-weight="400" fill="#d4dcef" text-anchor="start">Website intelligence. Explainable opportunity.</text><text x="72" y="428" font-family="DejaVu Sans,Arial,sans-serif" font-size="25" font-weight="400" fill="#d4dcef" text-anchor="start">Owner-controlled action.</text><rect x="72" y="476" width="358" height="40" rx="20" fill="#223252" stroke="#435774"/><text x="95" y="502" font-family="DejaVu Sans,Arial,sans-serif" font-size="16" font-weight="700" fill="#a9f3d5" text-anchor="start">FOUNDATION 0.1.0  /  PAUSED</text><text x="1185" y="205" font-family="DejaVu Sans,Arial,sans-serif" font-size="16" font-weight="700" fill="#81e7ef" text-anchor="middle">EVIDENCE</text><circle cx="1185" cy="310" r="95" stroke="#607da3" stroke-opacity=".6" fill="none"/><circle cx="1185" cy="310" r="132" stroke="#607da3" stroke-opacity=".6" fill="none"/><circle cx="1185" cy="310" r="167" stroke="#607da3" stroke-opacity=".6" fill="none"/><circle cx="1185" cy="310" r="74" fill="url(#g)"/><text x="1185" y="322" font-family="DejaVu Sans,Arial,sans-serif" font-size="38" font-weight="700" fill="#ffffff" text-anchor="middle">ARC</text><circle cx="1352.0" cy="310.0" r="8" fill="#53dbe5"/><text x="1370" y="316.0" font-family="DejaVu Sans,Arial,sans-serif" font-size="14" font-weight="700" fill="#cbd8ed" text-anchor="start">SCORE</text><circle cx="1185.0" cy="477.0" r="8" fill="#53dbe5"/><text x="1185.0" y="508.0" font-family="DejaVu Sans,Arial,sans-serif" font-size="14" font-weight="700" fill="#cbd8ed" text-anchor="middle">REVIEW</text><circle cx="1018.0" cy="310.0" r="8" fill="#53dbe5"/><text x="988" y="316.0" font-family="DejaVu Sans,Arial,sans-serif" font-size="14" font-weight="700" fill="#cbd8ed" text-anchor="end">AUDIT</text><circle cx="1185.0" cy="143.0" r="8" fill="#53dbe5"/><text x="1185.0" y="126.0" font-family="DejaVu Sans,Arial,sans-serif" font-size="14" font-weight="700" fill="#cbd8ed" text-anchor="middle">DISCOVER</text></svg>